HIERARCHY
ROOT Hips
{
	OFFSET 0.000000 100.481300 0.000000
	CHANNELS 6 Xposition Yposition Zposition Xrotation Yrotation Zrotation
	JOINT Spine
	{
		OFFSET -0.279200 12.230698 -2.892100
		CHANNELS 3 Xrotation Yrotation Zrotation
		JOINT Spine1
		{
			OFFSET -0.325700 14.269203 -3.374200
			CHANNELS 3 Xrotation Yrotation Zrotation
			JOINT Spine2
			{
				OFFSET -0.372300 16.307602 -0.352600
				CHANNELS 3 Xrotation Yrotation Zrotation
				JOINT Neck
				{
					OFFSET -0.418800 17.814194 8.416900
					CHANNELS 3 Xrotation Yrotation Zrotation
					JOINT Head
					{
						OFFSET 0.000000 7.031097 3.806800
						CHANNELS 3 Xrotation Yrotation Zrotation
						JOINT HeadTop_End
						{
							OFFSET 0.000000 24.646606 12.978600
							CHANNELS 3 Xrotation Yrotation Zrotation
							End Site
							{
								OFFSET 0.000000 27.854965 0.000000
							}
						}
					}
				}
				JOINT LeftShoulder
				{
					OFFSET 16.952999 14.495407 -7.737500
					CHANNELS 3 Xrotation Yrotation Zrotation
					JOINT LeftArm
					{
						OFFSET 9.308998 -2.777710 0.208600
						CHANNELS 3 Xrotation Yrotation Zrotation
						JOINT LeftForeArm
						{
							OFFSET 29.972298 0.000000 0.000000
							CHANNELS 3 Xrotation Yrotation Zrotation
							JOINT LeftHand
							{
								OFFSET 26.026505 0.000000 0.000000
								CHANNELS 3 Xrotation Yrotation Zrotation
								JOINT LeftHandThumb1
								{
									OFFSET 12.240501 -7.147949 9.207150
									CHANNELS 3 Xrotation Yrotation Zrotation
									JOINT LeftHandThumb2
									{
										OFFSET 4.138618 -2.389435 2.389433
										CHANNELS 3 Xrotation Yrotation Zrotation
										JOINT LeftHandThumb3
										{
											OFFSET 2.726913 -1.574387 1.574386
											CHANNELS 3 Xrotation Yrotation Zrotation
											JOINT LeftHandThumb4
											{
												OFFSET 3.941010 -2.275345 2.275342
												CHANNELS 3 Xrotation Yrotation Zrotation
												End Site
												{
													OFFSET -0.005798 5.087799 0.009903
												}
											}
										}
									}
								}
								JOINT LeftHandIndex1
								{
									OFFSET 24.424698 -1.985611 5.953459
									CHANNELS 3 Xrotation Yrotation Zrotation
									JOINT LeftHandIndex2
									{
										OFFSET 6.426697 0.000000 0.000000
										CHANNELS 3 Xrotation Yrotation Zrotation
										JOINT LeftHandIndex3
										{
											OFFSET 5.337898 0.000000 0.000000
											CHANNELS 3 Xrotation Yrotation Zrotation
											JOINT LeftHandIndex4
											{
												OFFSET 4.409401 0.000000 0.000000
												CHANNELS 3 Xrotation Yrotation Zrotation
												End Site
												{
													OFFSET 0.000000 4.409363 0.014373
												}
											}
										}
									}
								}
								JOINT LeftHandMiddle1
								{
									OFFSET 23.810104 0.000000 0.000000
									CHANNELS 3 Xrotation Yrotation Zrotation
									JOINT LeftHandMiddle2
									{
										OFFSET 7.176498 0.000000 0.000000
										CHANNELS 3 Xrotation Yrotation Zrotation
										JOINT LeftHandMiddle3
										{
											OFFSET 6.774902 0.000000 0.000000
											CHANNELS 3 Xrotation Yrotation Zrotation
											JOINT LeftHandMiddle4
											{
												OFFSET 5.403328 0.000000 0.000000
												CHANNELS 3 Xrotation Yrotation Zrotation
												End Site
												{
													OFFSET -0.027702 5.403244 0.017414
												}
											}
										}
									}
								}
								JOINT LeftHandRing1
								{
									OFFSET 22.908401 -0.839279 -6.020567
									CHANNELS 3 Xrotation Yrotation Zrotation
									JOINT LeftHandRing2
									{
										OFFSET 6.337502 0.000000 0.000000
										CHANNELS 3 Xrotation Yrotation Zrotation
										JOINT LeftHandRing3
										{
											OFFSET 5.779297 0.000000 0.000000
											CHANNELS 3 Xrotation Yrotation Zrotation
											JOINT LeftHandRing4
											{
												OFFSET 4.965698 0.000000 0.000000
												CHANNELS 3 Xrotation Yrotation Zrotation
												End Site
												{
													OFFSET 0.000000 4.965668 0.016186
												}
											}
										}
									}
								}
								JOINT LeftHandPinky1
								{
									OFFSET 20.037003 -1.530319 -10.950146
									CHANNELS 3 Xrotation Yrotation Zrotation
									JOINT LeftHandPinky2
									{
										OFFSET 5.254700 0.000000 0.000000
										CHANNELS 3 Xrotation Yrotation Zrotation
										JOINT LeftHandPinky3
										{
											OFFSET 4.810204 0.000000 0.000000
											CHANNELS 3 Xrotation Yrotation Zrotation
											JOINT LeftHandPinky4
											{
												OFFSET 3.647202 0.000000 0.000000
												CHANNELS 3 Xrotation Yrotation Zrotation
												End Site
												{
													OFFSET 0.000000 3.647186 0.011889
												}
											}
										}
									}
								}
							}
						}
					}
				}
				JOINT RightShoulder
				{
					OFFSET -15.141001 14.495407 -7.737500
					CHANNELS 3 Xrotation Yrotation Zrotation
					JOINT RightArm
					{
						OFFSET -9.308998 -2.777710 0.208500
						CHANNELS 3 Xrotation Yrotation Zrotation
						JOINT RightForeArm
						{
							OFFSET -29.972300 0.000000 0.000000
							CHANNELS 3 Xrotation Yrotation Zrotation
							JOINT RightHand
							{
								OFFSET -26.026505 0.000000 0.000000
								CHANNELS 3 Xrotation Yrotation Zrotation
								JOINT RightHandThumb1
								{
									OFFSET -12.240601 -7.148026 9.207092
									CHANNELS 3 Xrotation Yrotation Zrotation
									JOINT RightHandThumb2
									{
										OFFSET -4.138618 -2.389435 2.389433
										CHANNELS 3 Xrotation Yrotation Zrotation
										JOINT RightHandThumb3
										{
											OFFSET -2.726974 -1.574417 1.574421
											CHANNELS 3 Xrotation Yrotation Zrotation
											JOINT RightHandThumb4
											{
												OFFSET -3.941010 -2.275345 2.275343
												CHANNELS 3 Xrotation Yrotation Zrotation
												End Site
												{
													OFFSET 0.005814 5.087799 0.009927
												}
											}
										}
									}
								}
								JOINT RightHandIndex1
								{
									OFFSET -24.424698 -1.985657 5.953444
									CHANNELS 3 Xrotation Yrotation Zrotation
									JOINT RightHandIndex2
									{
										OFFSET -6.426697 0.000000 0.000000
										CHANNELS 3 Xrotation Yrotation Zrotation
										JOINT RightHandIndex3
										{
											OFFSET -5.337898 0.000000 0.000000
											CHANNELS 3 Xrotation Yrotation Zrotation
											JOINT RightHandIndex4
											{
												OFFSET -4.409401 0.000000 0.000000
												CHANNELS 3 Xrotation Yrotation Zrotation
												End Site
												{
													OFFSET 0.000000 4.409363 0.014408
												}
											}
										}
									}
								}
								JOINT RightHandMiddle1
								{
									OFFSET -23.810097 0.000000 0.000000
									CHANNELS 3 Xrotation Yrotation Zrotation
									JOINT RightHandMiddle2
									{
										OFFSET -7.176498 0.000000 0.000000
										CHANNELS 3 Xrotation Yrotation Zrotation
										JOINT RightHandMiddle3
										{
											OFFSET -6.774902 0.000000 0.000000
											CHANNELS 3 Xrotation Yrotation Zrotation
											JOINT RightHandMiddle4
											{
												OFFSET -5.403328 0.000000 0.000000
												CHANNELS 3 Xrotation Yrotation Zrotation
												End Site
												{
													OFFSET 0.027702 5.403244 0.017457
												}
											}
										}
									}
								}
								JOINT RightHandRing1
								{
									OFFSET -22.908302 -0.839325 -6.020576
									CHANNELS 3 Xrotation Yrotation Zrotation
									JOINT RightHandRing2
									{
										OFFSET -6.337502 0.000000 0.000000
										CHANNELS 3 Xrotation Yrotation Zrotation
										JOINT RightHandRing3
										{
											OFFSET -5.779297 0.000000 0.000000
											CHANNELS 3 Xrotation Yrotation Zrotation
											JOINT RightHandRing4
											{
												OFFSET -4.965698 0.000000 0.000000
												CHANNELS 3 Xrotation Yrotation Zrotation
												End Site
												{
													OFFSET 0.000000 4.965668 0.016226
												}
											}
										}
									}
								}
								JOINT RightHandPinky1
								{
									OFFSET -20.037003 -1.530334 -10.950259
									CHANNELS 3 Xrotation Yrotation Zrotation
									JOINT RightHandPinky2
									{
										OFFSET -5.254700 0.000000 0.000000
										CHANNELS 3 Xrotation Yrotation Zrotation
										JOINT RightHandPinky3
										{
											OFFSET -4.810204 0.000000 0.000000
											CHANNELS 3 Xrotation Yrotation Zrotation
											JOINT RightHandPinky4
											{
												OFFSET -3.647202 0.000000 0.000000
												CHANNELS 3 Xrotation Yrotation Zrotation
												End Site
												{
													OFFSET 0.000000 3.647186 0.011917
												}
											}
										}
									}
								}
							}
						}
					}
				}
			}
		}
	}
	JOINT LeftUpLeg
	{
		OFFSET 15.427100 -6.655098 0.678600
		CHANNELS 3 Xrotation Yrotation Zrotation
		JOINT LeftLeg
		{
			OFFSET 4.081073 -39.591068 13.024000
			CHANNELS 3 Xrotation Yrotation Zrotation
			JOINT LeftFoot
			{
				OFFSET -4.081074 -37.707932 -15.979700
				CHANNELS 3 Xrotation Yrotation Zrotation
				JOINT LeftToeBase
				{
					OFFSET 5.346399 -15.068900 20.645000
					CHANNELS 3 Xrotation Yrotation Zrotation
					JOINT LeftToe_End
					{
						OFFSET 2.754700 0.931300 11.300900
						CHANNELS 3 Xrotation Yrotation Zrotation
						End Site
						{
							OFFSET 0.000000 11.669021 0.000000
						}
					}
				}
			}
		}
	}
	JOINT RightUpLeg
	{
		OFFSET -15.569500 -6.655098 0.678600
		CHANNELS 3 Xrotation Yrotation Zrotation
		JOINT RightLeg
		{
			OFFSET -4.081825 -39.591045 13.023800
			CHANNELS 3 Xrotation Yrotation Zrotation
			JOINT RightFoot
			{
				OFFSET 4.081824 -37.707954 -15.979600
				CHANNELS 3 Xrotation Yrotation Zrotation
				JOINT RightToeBase
				{
					OFFSET -5.346400 -15.068900 20.645000
					CHANNELS 3 Xrotation Yrotation Zrotation
					JOINT RightToe_End
					{
						OFFSET -2.754700 0.931300 11.300900
						CHANNELS 3 Xrotation Yrotation Zrotation
						End Site
						{
							OFFSET 0.000000 11.669021 0.000000
						}
					}
				}
			}
		}
	}
}
MOTION
Frames: 4
Frame Time: 0.033333
3.884683 34.191292 -18.783104 92.661242 -4.475518 0.232163 15.647036 0.561799 -9.333766 6.027653 4.498424 -2.717195 5.989098 4.413927 -3.023286 -60.006907 -3.249152 4.154419 -7.521333 -4.457354 -13.054307 -0.000002 0.000000 0.000000 -48.967522 -14.237710 9.259431 -68.788228 -4.638594 -80.068504 -0.000001 -98.744707 0.000001 -92.365700 0.604696 49.367928 -8.024630 -2.940219 18.442791 19.473201 -1.474901 7.636927 -4.536183 -9.613117 1.492977 -0.000002 -0.000002 0.000001 -1.557076 0.326730 -25.893946 5.832712 5.851049 -89.820061 2.174360 4.554700 -51.020297 0.000000 0.000001 -0.000004 0.405922 5.507042 -52.453155 7.356326 5.654768 -104.932620 0.282012 1.797460 -17.832381 -0.000001 -0.000000 -0.000000 -0.074394 5.736766 -61.061420 6.959226 5.745537 -100.936016 0.582683 2.548970 -25.748010 -0.000000 0.000001 -0.000000 2.216797 7.072459 -64.435410 4.422633 5.674619 -75.845754 1.294114 3.673917 -38.798463 0.000001 -0.000001 -0.000001 1.185228 16.045465 -8.243133 -90.015370 9.074207 23.072726 0.000008 120.374803 -0.000007 -1.180776 -3.223574 17.555982 -9.476505 -17.905932 25.099017 -34.172639 -6.075022 -29.934820 -6.638217 -5.656528 -63.729565 -0.000001 0.000000 0.000003 -0.494198 9.886803 3.052973 4.494099 -4.654307 87.991107 2.254389 -3.990650 58.912308 0.000002 0.000001 0.000002 -1.065177 -5.946106 79.423659 6.168678 -4.405564 108.957978 0.248418 -1.502224 18.779392 0.000000 -0.000001 0.000000 -3.680516 -6.031699 83.530304 4.754010 -4.656165 91.192697 0.698704 -2.455488 31.763197 -0.000002 0.000000 0.000000 -3.541909 -7.108354 91.053293 2.431520 -4.091976 61.425428 1.871279 -3.733475 53.228969 -0.000001 -0.000000 0.000000 -70.813147 -25.113970 55.195309 108.563958 -19.893418 -22.085929 -11.200335 -9.056820 -18.242928 -5.800726 0.256248 5.993592 -0.000000 0.000001 0.000001 -81.342280 -3.457312 -21.338648 86.696117 -10.888902 0.466014 29.796646 -9.004802 18.928536 4.111509 -7.141163 -28.621652 0.000003 0.000002 -0.000001 
3.549272 35.088188 -20.271454 92.990799 -2.479651 0.219764 16.094279 -0.291477 -8.498977 7.122151 3.190916 -2.483361 7.077550 3.163930 -2.638103 -61.158354 -3.917924 4.601200 -8.824631 -2.781472 -12.256534 0.000001 0.000000 -0.000002 -48.931871 -14.671482 10.130176 -74.632528 -3.918222 -78.276638 0.000300 -95.807446 0.000307 -93.284989 2.547761 46.431158 -8.024627 -2.940219 18.442791 19.473206 -1.474899 7.636927 -4.536181 -9.613118 1.492978 -0.000001 -0.000001 0.000002 -1.557075 0.326729 -25.893946 5.832713 5.851047 -89.820068 2.174358 4.554701 -51.020297 -0.000001 0.000001 -0.000005 0.405924 5.507042 -52.453158 7.356328 5.654767 -104.932620 0.282014 1.797459 -17.832377 -0.000002 -0.000001 0.000001 -0.074391 5.736766 -61.061420 6.959226 5.745536 -100.936023 0.582682 2.548970 -25.748012 -0.000000 -0.000001 0.000002 2.216801 7.072459 -64.435417 4.422634 5.674620 -75.845754 1.294116 3.673915 -38.798463 -0.000000 -0.000002 0.000003 1.461374 15.637389 -9.717854 -95.120233 10.433864 25.440093 -0.000032 118.662707 0.000029 2.335099 -2.985275 17.352608 -9.476506 -17.905930 25.099014 -34.172645 -6.075020 -29.934824 -6.638219 -5.656530 -63.729558 0.000003 -0.000003 0.000000 -0.494198 9.886801 3.052971 4.494096 -4.654310 87.991107 2.254390 -3.990646 58.912308 -0.000003 0.000003 -0.000001 -1.065176 -5.946105 79.423659 6.168674 -4.405566 108.957971 0.248420 -1.502225 18.779392 0.000003 -0.000002 -0.000000 -3.680511 -6.031700 83.530304 4.754014 -4.656165 91.192704 0.698704 -2.455486 31.763194 0.000001 -0.000000 -0.000000 -3.541908 -7.108356 91.053286 2.431522 -4.091975 61.425428 1.871273 -3.733475 53.228969 -0.000000 0.000000 -0.000000 -75.058328 -24.715683 46.701862 107.966918 -15.024082 -19.119364 -10.074077 -8.538141 -20.555862 0.432327 1.476098 14.463446 0.000001 -0.000002 0.000001 -83.711987 -2.599166 -21.998077 87.851853 -11.092938 0.198864 30.507002 -9.315777 18.682046 4.335098 -7.304255 -29.189657 0.000001 0.000003 0.000003 
3.070798 35.360123 -21.829987 93.047585 -1.246590 0.200206 16.369153 -1.199196 -7.603043 8.028616 2.256335 -2.603465 7.994399 2.226812 -2.684604 -62.202423 -5.037630 5.484867 -9.793983 -0.908975 -11.227821 -0.000002 0.000000 -0.000000 -48.864068 -15.116974 11.434145 -78.389787 -3.463769 -76.677684 0.000220 -94.317604 0.000230 -94.151917 4.178422 43.978926 -8.024627 -2.940220 18.442793 19.473202 -1.474901 7.636926 -4.536178 -9.613117 1.492976 0.000000 -0.000001 -0.000000 -1.557074 0.326729 -25.893951 5.832713 5.851047 -89.820068 2.174358 4.554700 -51.020301 0.000003 -0.000000 -0.000001 0.405924 5.507040 -52.453162 7.356325 5.654770 -104.932620 0.282015 1.797459 -17.832379 -0.000002 -0.000001 0.000002 -0.074392 5.736765 -61.061420 6.959226 5.745539 -100.936023 0.582683 2.548971 -25.748007 -0.000001 -0.000000 0.000000 2.216801 7.072459 -64.435417 4.422632 5.674617 -75.845754 1.294118 3.673914 -38.798466 0.000002 0.000001 -0.000004 1.749739 15.725717 -10.997762 -98.816336 9.876483 27.744201 0.000007 118.950558 -0.000014 6.253573 -3.310351 17.406435 -9.476503 -17.905930 25.099012 -34.172639 -6.075027 -29.934824 -6.638221 -5.656530 -63.729558 -0.000002 0.000000 0.000001 -0.494196 9.886799 3.052971 4.494095 -4.654311 87.991107 2.254391 -3.990648 58.912308 0.000001 0.000002 -0.000001 -1.065177 -5.946109 79.423653 6.168674 -4.405563 108.957971 0.248420 -1.502224 18.779387 0.000002 0.000003 0.000001 -3.680512 -6.031702 83.530304 4.754012 -4.656166 91.192697 0.698702 -2.455489 31.763197 -0.000002 -0.000000 -0.000000 -3.541908 -7.108358 91.053293 2.431522 -4.091975 61.425428 1.871276 -3.733477 53.228965 0.000001 -0.000001 0.000000 -78.194150 -25.006064 41.175112 107.938866 -12.383899 -17.938128 -8.402025 -9.284033 -17.502669 1.813346 2.328795 19.382453 0.000001 0.000001 0.000001 -86.263158 -2.365013 -22.533875 89.176890 -11.617892 -0.323226 32.713174 -10.191074 18.480781 4.379470 -6.759061 -28.020356 0.000002 0.000000 -0.000003 
2.532796 34.978813 -23.450584 92.968662 -1.203503 -0.066018 16.159662 -1.807322 -6.529832 8.543704 1.833777 -3.061955 8.520552 1.742628 -3.138545 -63.273821 -5.943409 6.542279 -10.094194 0.414737 -9.982978 -0.000001 0.000000 0.000000 -48.781819 -15.373011 13.015697 -80.282317 -3.663080 -75.171710 0.000189 -94.408801 0.000198 -95.133136 5.715479 42.809925 -8.024629 -2.940220 18.442790 19.473204 -1.474899 7.636923 -4.536182 -9.613116 1.492981 0.000002 -0.000003 -0.000003 -1.557076 0.326729 -25.893954 5.832713 5.851048 -89.820068 2.174359 4.554699 -51.020297 -0.000000 0.000000 -0.000001 0.405924 5.507043 -52.453158 7.356327 5.654767 -104.932613 0.282012 1.797460 -17.832386 -0.000000 0.000001 -0.000003 -0.074395 5.736764 -61.061420 6.959227 5.745538 -100.936023 0.582681 2.548970 -25.748008 0.000001 0.000001 0.000002 2.216800 7.072459 -64.435417 4.422632 5.674621 -75.845754 1.294115 3.673917 -38.798466 0.000001 -0.000000 -0.000002 2.069808 16.635554 -11.821822 -100.421792 7.822747 30.240939 0.000008 121.355482 -0.000019 10.462769 -4.319290 17.222546 -9.476500 -17.905928 25.099011 -34.172645 -6.075024 -29.934820 -6.638222 -5.656531 -63.729558 0.000001 0.000003 -0.000001 -0.494193 9.886802 3.052971 4.494096 -4.654309 87.991107 2.254390 -3.990652 58.912308 0.000001 -0.000000 0.000000 -1.065172 -5.946104 79.423659 6.168674 -4.405564 108.957978 0.248420 -1.502225 18.779385 0.000005 0.000000 -0.000001 -3.680507 -6.031699 83.530304 4.754013 -4.656168 91.192704 0.698701 -2.455487 31.763194 -0.000000 -0.000000 0.000001 -3.541905 -7.108353 91.053293 2.431522 -4.091974 61.425428 1.871273 -3.733476 53.228965 -0.000000 -0.000000 -0.000001 -80.857562 -24.723185 38.231728 108.995537 -11.819052 -17.905670 -7.005849 -10.868917 -9.304761 -1.830598 1.863089 17.635002 -0.000000 0.000001 -0.000000 -88.671790 -2.751012 -22.535386 90.742451 -12.751167 -1.022710 34.505303 -10.633610 17.482310 4.309331 -6.042729 -26.397786 0.000001 -0.000002 0.000001 
